<?xml version="1.0" standalone="no"?>
<!DOCTYPE svg PUBLIC "-//W3C//DTD SVG 20010904//EN"
 "http://www.w3.org/TR/2001/REC-SVG-20010904/DTD/svg10.dtd">
<svg version="1.0" xmlns="http://www.w3.org/2000/svg"
 width="300.000000pt" height="300.000000pt" viewBox="0 0 300.000000 300.000000"
 preserveAspectRatio="xMidYMid meet">
<metadata>
Created by potrace 1.14, written by Peter Selinger 2001-2017
</metadata>
<g transform="translate(0.000000,300.000000) scale(0.100000,-0.100000)"
fill="#000000" stroke="none">
<path d="M0 2405 c0 -327 3 -595 7 -595 4 0 113 51 243 114 261 127 397 179
520 197 152 22 298 -3 394 -68 l41 -28 -65 -6 c-90 -9 -138 -24 -191 -58 -65
-41 -93 -89 -87 -150 6 -62 36 -103 94 -131 38 -19 57 -22 117 -18 128 9 227
51 487 208 339 204 490 260 698 260 53 0 120 -6 148 -14 52 -14 154 -64 154
-75 0 -3 -33 -6 -73 -7 -89 -1 -163 -31 -211 -85 -87 -96 -60 -208 61 -251 97
-34 355 -5 571 63 l92 30 0 604 0 605 -1500 0 -1500 0 0 -595z"/>
<path d="M2162 1349 c-158 -18 -332 -93 -622 -268 -217 -131 -342 -186 -450
-197 -128 -14 -230 58 -230 163 0 101 121 184 287 196 24 2 45 6 48 9 9 9
-109 67 -170 83 -76 19 -205 19 -301 -1 -118 -24 -221 -64 -479 -187 l-240
-115 -3 -516 -2 -516 1500 0 1500 0 0 506 c0 401 -3 505 -12 501 -44 -16 -209
-59 -296 -77 -154 -31 -245 -36 -321 -16 -79 20 -112 44 -136 95 -16 36 -17
47 -6 84 18 60 51 98 112 132 44 24 69 30 138 33 77 4 83 6 65 19 -42 33 -127
63 -206 73 -45 5 -87 9 -93 9 -5 -1 -43 -5 -83 -10z"/>
</g>
</svg>
